<svg version="1.2" baseProfile="tiny-ps" xmlns="http://www.w3.org/2000/svg" viewBox="0 0 58 59" width="58" height="59">
	<title>Web 1920 – 1</title>
	<style>
		tspan { white-space:pre }
		.shp0 { fill: #22292f } 
		.shp1 { fill: #1cafff } 
	</style>
	<g id="Web 1920 – 1">
		<g id="games">
			<g id="high limit">
				<path id="Path 618" class="shp0" d="M54.6 53.71L57.3 45.6C57.59 44.75 57.37 43.83 56.74 43.19L54.38 40.84L17.26 3.72L14.91 1.37C14.27 0.73 13.35 0.51 12.5 0.8L4.39 3.5C3.69 3.74 3.14 4.29 2.9 4.99L0.2 13.1C-0.09 13.95 0.13 14.87 0.77 15.51L3.12 17.86L40.24 54.98L42.6 57.34C43.23 57.97 44.15 58.19 45 57.9L53.11 55.2C53.81 54.97 54.37 54.41 54.6 53.71Z" />
				<path id="Path 619" class="shp1" d="M50.94 42.7L48.79 49.39L42.1 51.54L6.56 16L8.72 9.32L15.4 7.16L50.94 42.7Z" />
				<g id="Group 47">
					<path id="Path 620" class="shp0" d="M16.96 12.17L17.6 12.81L14.55 15.86L15.76 17.07L18.82 14.02L19.46 14.66L13.96 20.16L13.32 19.52L15.16 17.68L13.94 16.47L12.1 18.31L11.46 17.67L16.96 12.17Z" />
					<path id="Path 621" class="shp0" d="M20.99 16.19L21.63 16.83L16.13 22.33L15.49 21.69L20.99 16.19Z" />
					<path id="Path 622" class="shp0" d="M21.83 22.87L22.47 23.51L19.83 26.16C18.39 24.84 18.27 22.68 20.23 20.73C21.96 19 23.83 18.91 24.83 19.91C25.04 20.12 25.2 20.37 25.34 20.7L24.49 20.97C24.44 20.84 24.3 20.66 24.2 20.56C23.6 19.96 22.24 20.04 20.89 21.4C19.68 22.61 19.44 23.85 19.94 24.76L21.83 22.87L21.83 22.87Z" />
					<path id="Path 623" class="shp0" d="M26.77 21.98L27.41 22.62L24.36 25.67L25.57 26.88L28.63 23.83L29.27 24.47L23.77 29.97L23.13 29.33L24.97 27.49L23.75 26.28L21.91 28.12L21.27 27.48L26.77 21.98Z" />
					<path id="Path 624" class="shp0" d="M32.36 27.57L33.01 28.21L28.11 33.11L29.53 34.53L28.93 35.13L26.86 33.07L32.36 27.57Z" />
					<path id="Path 625" class="shp0" d="M35.47 30.67L36.11 31.32L30.61 36.82L29.97 36.18L35.47 30.67Z" />
					<path id="Path 626" class="shp0" d="M37.85 32.63L36.52 37.14L41.03 35.81L35.32 41.52L34.68 40.88L37.26 38.3L37.97 37.62L36.9 37.96L35.22 38.45L35.21 38.45L35.21 38.45L35.22 38.44L35.71 36.75L36.04 35.69L35.37 36.4L32.78 38.99L32.14 38.34L37.85 32.63L37.85 32.63Z" />
					<path id="Path 627" class="shp0" d="M42.35 37.56L42.99 38.2L37.49 43.7L36.85 43.06L42.35 37.56Z" />
					<path id="Path 628" class="shp0" d="M44.43 40.85L43.57 39.99L44.17 39.38L46.54 41.75L45.94 42.36L45.07 41.49L40.18 46.39L39.54 45.74L44.43 40.85Z" />
				</g>
				<path id="Path 629" fill-rule="evenodd" class="shp1" d="M52.59 53.62L44.47 56.32C44.23 56.41 43.96 56.34 43.77 56.16L41.42 53.8L4.3 16.69L1.94 14.33C1.76 14.15 1.7 13.88 1.78 13.63L4.48 5.52C4.55 5.31 4.71 5.15 4.92 5.08L13.03 2.38C13.28 2.3 13.55 2.36 13.73 2.54L16.09 4.9L53.2 42.02L55.56 44.37C55.74 44.56 55.81 44.83 55.72 45.07L53.02 53.19C52.95 53.39 52.79 53.55 52.59 53.62ZM54.9 44.9L53.21 43.2L51.29 48.94L52.99 50.64L54.9 44.9ZM7.46 5.11L9.16 6.81L14.9 4.9L13.21 3.2L7.46 5.11ZM5.25 5.85L4.81 7.18L6.51 8.87L6.84 7.87C6.91 7.67 7.07 7.51 7.27 7.44L8.28 7.11L6.58 5.41L5.25 5.85ZM2.6 13.81L4.3 15.5L6.21 9.76L4.51 8.06L2.6 13.81ZM41.94 53.15L47.69 51.23L48.57 50.94L49.9 50.5L50.34 49.17L50.63 48.29L52.55 42.54L15.56 5.56L7.61 8.21L4.96 16.16L41.94 53.15ZM50.04 53.59L48.34 51.89L42.6 53.81L44.3 55.5L50.04 53.59ZM52.25 52.85L52.69 51.53L51 49.83L50.66 50.83C50.59 51.03 50.43 51.19 50.23 51.26L49.23 51.6L50.93 53.29L52.25 52.85Z" />
			</g>
		</g>
	</g>
</svg>