<svg version="1.2" baseProfile="tiny-ps" xmlns="http://www.w3.org/2000/svg" viewBox="0 0 24 24" width="24" height="24">
	<title>Web 1920 – 1</title>
	<style>
		tspan { white-space:pre }
		.shp0 { fill: #ffffff } 
	</style>
	<g id="Web 1920 – 1">
		<g id="input_search">
			<g id="ico_search">
				<path id="Path 550" fill-rule="evenodd" class="shp0" d="M24 22.12C24 22.63 23.8 23.1 23.45 23.45C23.1 23.8 22.63 24 22.12 24C21.62 24 21.15 23.8 20.8 23.45L16.27 18.92L16.27 18.92L14.54 17.19C13.01 18.21 11.23 18.75 9.37 18.75C4.21 18.75 0 14.54 0 9.37C0 4.21 4.21 0 9.37 0C14.54 0 18.75 4.21 18.75 9.37C18.75 11.23 18.21 13.01 17.19 14.54L23.45 20.8C23.8 21.15 24 21.62 24 22.12ZM16.21 14.32C17.26 12.88 17.81 11.16 17.81 9.37C17.81 4.72 14.03 0.94 9.37 0.94C4.72 0.94 0.94 4.72 0.94 9.37C0.94 14.03 4.72 17.81 9.37 17.81C11.16 17.81 12.88 17.26 14.32 16.21C15.05 15.68 15.68 15.05 16.21 14.32ZM16.63 17.96C17.11 17.56 17.56 17.11 17.96 16.64L16.63 15.31C16.23 15.79 15.79 16.23 15.31 16.63L16.63 17.96ZM23.06 22.12C23.06 21.88 22.96 21.64 22.79 21.46L18.62 17.3C18.22 17.77 17.77 18.22 17.3 18.63L21.46 22.79C21.64 22.96 21.87 23.06 22.12 23.06C22.38 23.06 22.61 22.96 22.79 22.79C22.96 22.61 23.06 22.38 23.06 22.12Z" />
				<path id="Path 551" fill-rule="evenodd" class="shp0" d="M16.87 9.37C16.87 13.51 13.51 16.87 9.37 16.87C5.24 16.87 1.87 13.51 1.87 9.37C1.87 5.24 5.24 1.87 9.37 1.87C13.51 1.87 16.87 5.24 16.87 9.37ZM15.94 9.37C15.94 5.76 12.99 2.81 9.37 2.81C5.76 2.81 2.81 5.76 2.81 9.37C2.81 12.99 5.76 15.94 9.37 15.94C12.99 15.94 15.94 12.99 15.94 9.37Z" />
			</g>
		</g>
	</g>
</svg>