<svg version="1.2" baseProfile="tiny-ps" xmlns="http://www.w3.org/2000/svg" viewBox="0 0 24 25" width="24" height="25">
	<title>Web 1920 – 1</title>
	<style>
		tspan { white-space:pre }
		.shp0 { fill: #00a9e0 } 
	</style>
	<g id="Web 1920 – 1">
		<g id="filters">
			<g id="all">
				<g id="ico_all">
					<path id="Path 11039" fill-rule="evenodd" class="shp0" d="M15.47 0.47L15.47 6.47C15.47 6.73 15.26 6.94 15 6.94L9 6.94C8.74 6.94 8.53 6.73 8.53 6.47L8.53 0.47C8.53 0.21 8.74 0 9 0L15 0C15.26 0 15.47 0.21 15.47 0.47ZM14.53 0.94L9.47 0.94L9.47 6L14.53 6L14.53 0.94Z" />
					<path id="Path 11040" fill-rule="evenodd" class="shp0" d="M24 0.47L24 6.47C24 6.73 23.79 6.94 23.53 6.94L17.53 6.94C17.28 6.94 17.07 6.73 17.07 6.47L17.07 0.47C17.07 0.21 17.28 0 17.53 0L23.53 0C23.79 0 24 0.21 24 0.47ZM23.06 0.94L18 0.94L18 6L23.06 6L23.06 0.94Z" />
					<path id="Path 11041" fill-rule="evenodd" class="shp0" d="M6.93 9L6.93 15C6.93 15.26 6.72 15.47 6.47 15.47L0.47 15.47C0.21 15.47 0 15.26 0 15L0 9C0 8.74 0.21 8.53 0.47 8.53L6.47 8.53C6.72 8.53 6.93 8.74 6.93 9ZM6 14.53L6 9.47L0.94 9.47L0.94 14.53L6 14.53Z" />
					<path id="Path 11042" fill-rule="evenodd" class="shp0" d="M15.47 9L15.47 15C15.47 15.26 15.26 15.47 15 15.47L9 15.47C8.74 15.47 8.53 15.26 8.53 15L8.53 9C8.53 8.74 8.74 8.53 9 8.53L15 8.53C15.26 8.53 15.47 8.74 15.47 9ZM14.53 9.47L9.47 9.47L9.47 14.53L14.53 14.53L14.53 9.47Z" />
					<path id="Path 11043" fill-rule="evenodd" class="shp0" d="M24 9L24 15C24 15.26 23.79 15.47 23.53 15.47L17.53 15.47C17.28 15.47 17.07 15.26 17.07 15L17.07 9C17.07 8.74 17.28 8.53 17.53 8.53L23.53 8.53C23.79 8.53 24 8.74 24 9ZM23.06 9.47L18 9.47L18 14.53L23.06 14.53L23.06 9.47Z" />
					<path id="Path 11044" fill-rule="evenodd" class="shp0" d="M6.93 17.53L6.93 23.53C6.93 23.79 6.72 24 6.47 24L0.47 24C0.21 24 0 23.79 0 23.53L0 17.53C0 17.27 0.21 17.06 0.47 17.06L6.47 17.06C6.72 17.06 6.93 17.27 6.93 17.53ZM6 23.06L6 18L0.94 18L0.94 23.06L6 23.06Z" />
					<path id="Path 11045" fill-rule="evenodd" class="shp0" d="M15.47 17.53L15.47 23.53C15.47 23.79 15.26 24 15 24L9 24C8.74 24 8.53 23.79 8.53 23.53L8.53 17.53C8.53 17.27 8.74 17.06 9 17.06L15 17.06C15.26 17.06 15.47 17.27 15.47 17.53ZM14.53 18L9.47 18L9.47 23.06L14.53 23.06L14.53 18Z" />
					<path id="Path 11046" class="shp0" d="M21.02 17.86C21.11 17.78 21.16 17.65 21.16 17.53C21.16 17.41 21.11 17.29 21.02 17.2C20.94 17.11 20.82 17.06 20.69 17.06C20.57 17.06 20.45 17.11 20.36 17.2C20.27 17.29 20.22 17.41 20.22 17.53C20.22 17.65 20.27 17.77 20.36 17.86C20.45 17.95 20.57 18 20.69 18C20.82 18 20.94 17.95 21.02 17.86Z" />
					<path id="Path 11047" class="shp0" d="M23.53 17.06L22.82 17.06C22.56 17.06 22.35 17.27 22.35 17.53C22.35 17.79 22.56 18 22.82 18L23.06 18L23.06 23.06L18 23.06L18 18L18.63 18C18.89 18 19.1 17.79 19.1 17.53C19.1 17.27 18.89 17.06 18.63 17.06L17.53 17.06C17.27 17.06 17.06 17.27 17.06 17.53L17.06 23.53C17.06 23.79 17.27 24 17.53 24L23.53 24C23.79 24 24 23.79 24 23.53L24 17.53C24 17.27 23.79 17.06 23.53 17.06Z" />
					<path id="Path 11048" class="shp0" d="M2.98 6.14C2.89 6.22 2.84 6.34 2.84 6.47C2.84 6.59 2.89 6.71 2.98 6.8C3.06 6.89 3.18 6.94 3.31 6.94C3.43 6.94 3.55 6.89 3.64 6.8C3.73 6.71 3.78 6.59 3.78 6.47C3.78 6.34 3.73 6.22 3.64 6.14C3.55 6.05 3.43 6 3.31 6C3.18 6 3.06 6.05 2.98 6.14Z" />
					<path id="Path 11049" class="shp0" d="M0.47 6.94L1.18 6.94C1.44 6.94 1.65 6.73 1.65 6.47C1.65 6.21 1.44 6 1.18 6L0.94 6L0.94 0.94L6 0.94L6 6L5.37 6C5.11 6 4.9 6.21 4.9 6.47C4.9 6.73 5.11 6.94 5.37 6.94L6.47 6.94C6.72 6.94 6.93 6.73 6.93 6.47L6.93 0.47C6.93 0.21 6.72 0 6.47 0L0.47 0C0.21 0 0 0.21 0 0.47L0 6.47C0 6.73 0.21 6.94 0.47 6.94Z" />
				</g>
			</g>
		</g>
	</g>
</svg>