<svg version="1.2" baseProfile="tiny-ps" xmlns="http://www.w3.org/2000/svg" viewBox="0 0 17 24" width="17" height="24">
	<title>Web 1920 – 1</title>
	<style>
		tspan { white-space:pre }
		.shp0 { fill: #5b6770 } 
	</style>
	<g id="Web 1920 – 1">
		<g id="filters">
			<g id="new">
				<g id="ico_new">
					<path id="Path 10913" fill-rule="evenodd" class="shp0" d="M16.67 8.26L16.67 23.25C16.67 23.52 16.51 23.77 16.25 23.9C16.12 23.97 15.99 24 15.85 24C15.7 24 15.55 23.96 15.42 23.89L8.33 19.87L1.24 23.89C1.11 23.96 0.96 24 0.82 24C0.68 24 0.54 23.97 0.42 23.9C0.16 23.77 0 23.52 0 23.25L0 8.26C0 7.84 0.37 7.51 0.82 7.51L15.85 7.51C16.3 7.51 16.67 7.84 16.67 8.26ZM15.85 8.26L0.82 8.26L0.82 23.25L8.21 19.05C8.25 19.03 8.29 19.02 8.33 19.02C8.37 19.02 8.41 19.03 8.45 19.06L15.85 23.25L15.85 8.26Z" />
					<path id="Path 10914" fill-rule="evenodd" class="shp0" d="M16.67 0.75L16.67 5.3C16.67 5.71 16.3 6.05 15.85 6.05L0.82 6.05C0.37 6.05 0 5.71 0 5.3L0 0.75C0 0.34 0.37 0 0.82 0L15.85 0C16.3 0 16.67 0.34 16.67 0.75ZM15.85 0.75L0.82 0.75L0.82 5.3L15.85 5.3L15.85 0.75Z" />
				</g>
			</g>
		</g>
	</g>
</svg>