<svg version="1.2" baseProfile="tiny-ps" xmlns="http://www.w3.org/2000/svg" viewBox="0 0 47 20" width="47" height="20">
	<title>Web 1920 – 1</title>
	<style>
		tspan { white-space:pre }
		.shp0 { fill: #22292f } 
		.shp1 { fill: #cc9e02 } 
	</style>
	<g id="Web 1920 – 1">
		<g id="games">
			<g id="new">
				<path id="Path 569" class="shp0" d="M46.26 8.95L42.43 1.3C42.03 0.5 41.23 0 40.33 0L37 0L9.51 0L6.17 0C5.28 0 4.47 0.5 4.07 1.3L0.25 8.95C-0.08 9.61 -0.08 10.39 0.25 11.05L4.07 18.7C4.47 19.5 5.28 20 6.17 20L9.51 20L37 20L40.33 20C41.23 20 42.03 19.5 42.43 18.7L46.26 11.05C46.59 10.39 46.59 9.61 46.26 8.95Z" />
				<path id="Path 570" class="shp1" d="M35.88 3.75L39.09 10L35.88 16.25L10.62 16.25L7.42 10L10.62 3.75L35.88 3.75Z" />
				<g id="Group 38">
					<path id="Path 571" class="shp0" d="M15.26 5.81L17.71 9.89L18.25 10.84L18.22 9.91L18.22 6.11L19.13 6.11L19.13 14.06L16.68 10L16.14 9.15L16.17 10L16.17 13.89L15.27 13.89L15.27 5.81L15.26 5.81Z" />
					<path id="Path 572" class="shp0" d="M21.78 6.11L24.4 6.11L24.4 6.97L22.69 6.97L22.69 9.96L24.16 9.96L24.16 10.82L22.69 10.82L22.69 13.03L24.4 13.03L24.4 13.89L21.78 13.89L21.78 6.11Z" />
					<path id="Path 573" class="shp0" d="M26.13 6.11L27.11 6.11L27.85 10L28.05 11.25L28.48 10L29.03 8.51L29.58 10L30.01 11.25L30.21 10L30.95 6.11L31.93 6.11L30.26 14.13L29.42 11.85L29.03 10.76L28.65 11.85L27.81 14.13L26.13 6.11Z" />
				</g>
				<path id="Path 574" fill-rule="evenodd" class="shp1" d="M44.77 10.31L40.94 17.96C40.82 18.19 40.59 18.33 40.33 18.33L6.17 18.33C5.92 18.33 5.68 18.19 5.56 17.95L1.74 10.3C1.64 10.11 1.64 9.89 1.74 9.69L5.56 2.04C5.68 1.81 5.92 1.67 6.17 1.67L40.33 1.67C40.59 1.67 40.82 1.81 40.94 2.04L44.77 9.69C44.86 9.89 44.86 10.11 44.77 10.31ZM40.24 2.5L37.84 2.5L40.54 7.92L42.95 7.92L40.24 2.5ZM3.56 7.92L5.96 7.92L8.67 2.5L6.27 2.5L3.56 7.92ZM2.52 10L3.14 11.25L5.54 11.25L5.07 10.3C4.98 10.11 4.98 9.89 5.07 9.69L5.54 8.75L3.14 8.75L2.52 10ZM6.27 17.5L8.67 17.5L5.96 12.08L3.56 12.08L6.27 17.5ZM36.9 17.5L39.61 12.08L40.03 11.25L40.65 10L40.03 8.75L39.61 7.92L36.9 2.5L9.6 2.5L5.85 10L9.6 17.5L36.9 17.5ZM42.95 12.08L40.54 12.08L37.84 17.5L40.24 17.5L42.95 12.08ZM43.99 10L43.36 8.75L40.96 8.75L41.43 9.69C41.53 9.89 41.53 10.11 41.43 10.31L40.96 11.25L43.36 11.25L43.99 10Z" />
			</g>
		</g>
	</g>
</svg>