<svg version="1.2" baseProfile="tiny-ps" xmlns="http://www.w3.org/2000/svg" viewBox="0 0 24 25" width="24" height="25">
	<title>Web 1920 – 1</title>
	<style>
		tspan { white-space:pre }
		.shp0 { fill: #5b6770 } 
	</style>
	<g id="Web 1920 – 1">
		<g id="filters">
			<g id="top">
				<g id="ico_top">
					<path id="Path 11050" class="shp0" d="M23.95 9.09C23.83 8.71 23.52 8.44 23.13 8.41L15.79 7.69L14.34 4.16C14.26 3.97 14.06 3.88 13.88 3.96C13.7 4.04 13.62 4.26 13.69 4.45L15.23 8.19C15.28 8.31 15.39 8.39 15.52 8.41L23.07 9.14C23.22 9.15 23.27 9.27 23.28 9.32C23.3 9.37 23.32 9.5 23.21 9.6L17.52 14.84C17.42 14.93 17.38 15.07 17.41 15.2L19.07 22.94C19.1 23.09 19.01 23.18 18.97 23.21C18.93 23.24 18.83 23.31 18.7 23.22L12.18 19.17C12.07 19.1 11.93 19.1 11.82 19.17L5.3 23.22C5.18 23.3 5.07 23.24 5.03 23.21C4.99 23.18 4.9 23.09 4.93 22.94L5.79 18.94C5.83 18.74 5.71 18.55 5.52 18.5C5.33 18.46 5.15 18.58 5.1 18.78L4.24 22.78C4.16 23.17 4.3 23.57 4.61 23.81C4.93 24.04 5.33 24.06 5.66 23.86L12 19.92L18.34 23.86C18.49 23.95 18.66 24 18.83 24C19.02 24 19.22 23.93 19.39 23.81C19.7 23.57 19.84 23.17 19.76 22.77L18.14 15.25L23.67 10.15C23.96 9.89 24.07 9.48 23.95 9.09Z" />
					<path id="Path 11051" class="shp0" d="M5.44 17.21C5.4 17.4 5.52 17.6 5.71 17.65C5.73 17.65 5.76 17.66 5.78 17.66C5.95 17.66 6.09 17.54 6.13 17.37L6.59 15.2C6.62 15.06 6.58 14.93 6.48 14.84L0.79 9.6C0.68 9.5 0.7 9.37 0.72 9.32C0.73 9.27 0.78 9.15 0.93 9.14L8.48 8.41C8.61 8.39 8.72 8.31 8.77 8.19L11.77 0.9C11.83 0.75 11.95 0.74 12 0.74C12.05 0.74 12.17 0.75 12.23 0.9L13.05 2.88C13.12 3.06 13.33 3.15 13.51 3.07C13.69 2.99 13.77 2.77 13.69 2.58L12.88 0.6C12.72 0.23 12.39 0 12 0C11.61 0 11.28 0.23 11.12 0.61L8.21 7.69L0.87 8.41C0.48 8.44 0.17 8.71 0.05 9.09C-0.07 9.48 0.03 9.89 0.33 10.15L5.86 15.25L5.44 17.21Z" />
				</g>
			</g>
		</g>
	</g>
</svg>